<svg xmlns="http://www.w3.org/2000/svg" width="215.61" height="35" viewBox="0 0 215.61 35"><rect class="svg__rect" x="0" y="0" width="86.39" height="35" fill="#31C4F3"/><rect class="svg__rect" x="84.39" y="0" width="131.22000000000003" height="35" fill="#389AD5"/><path class="svg__text" d="M13.95 18.19L13.95 18.19L13.95 17.39Q13.95 16.19 14.38 15.27Q14.80 14.35 15.60 13.85Q16.40 13.35 17.45 13.35L17.45 13.35Q18.86 13.35 19.73 14.12Q20.59 14.89 20.73 16.29L20.73 16.29L19.25 16.29Q19.14 15.37 18.71 14.96Q18.28 14.55 17.45 14.55L17.45 14.55Q16.48 14.55 15.97 15.26Q15.45 15.96 15.44 17.33L15.44 17.33L15.44 18.09Q15.44 19.47 15.93 20.20Q16.43 20.92 17.38 20.92L17.38 20.92Q18.25 20.92 18.69 20.53Q19.13 20.14 19.25 19.22L19.25 19.22L20.73 19.22Q20.60 20.59 19.72 21.35Q18.84 22.12 17.38 22.12L17.38 22.12Q16.36 22.12 15.59 21.63Q14.81 21.15 14.39 20.26Q13.97 19.37 13.95 18.19ZM24.77 18.00L24.77 18.00L24.77 17.52Q24.77 16.28 25.21 15.32Q25.65 14.37 26.46 13.86Q27.27 13.35 28.31 13.35Q29.35 13.35 30.16 13.85Q30.96 14.35 31.40 15.29Q31.84 16.23 31.85 17.48L31.85 17.48L31.85 17.96Q31.85 19.21 31.41 20.16Q30.98 21.10 30.18 21.61Q29.37 22.12 28.32 22.12L28.32 22.12Q27.28 22.12 26.47 21.61Q25.66 21.10 25.22 20.17Q24.78 19.23 24.77 18.00ZM26.25 17.46L26.25 17.96Q26.25 19.36 26.80 20.13Q27.35 20.90 28.32 20.90L28.32 20.90Q29.31 20.90 29.84 20.15Q30.37 19.40 30.37 17.96L30.37 17.96L30.37 17.51Q30.37 16.09 29.83 15.34Q29.29 14.58 28.31 14.58L28.31 14.58Q27.35 14.58 26.81 15.33Q26.26 16.09 26.25 17.46L26.25 17.46ZM41.67 22L36.31 22L36.31 13.47L37.80 13.47L37.80 20.82L41.67 20.82L41.67 22ZM51.15 22L45.79 22L45.79 13.47L47.28 13.47L47.28 20.82L51.15 20.82L51.15 22ZM56.05 22L54.51 22L57.73 13.47L59.06 13.47L62.29 22L60.75 22L60.05 20.01L56.74 20.01L56.05 22ZM58.40 15.28L57.16 18.82L59.63 18.82L58.40 15.28ZM69.36 22L66.25 22L66.25 13.47L69.17 13.47Q70.62 13.47 71.38 14.05Q72.13 14.63 72.13 15.78L72.13 15.78Q72.13 16.36 71.81 16.83Q71.50 17.30 70.89 17.56L70.89 17.56Q71.58 17.75 71.96 18.26Q72.34 18.78 72.34 19.51L72.34 19.51Q72.34 20.71 71.57 21.36Q70.80 22 69.36 22L69.36 22ZM67.73 18.15L67.73 20.82L69.38 20.82Q70.07 20.82 70.47 20.47Q70.86 20.13 70.86 19.51L70.86 19.51Q70.86 18.18 69.50 18.15L69.50 18.15L67.73 18.15ZM67.73 14.66L67.73 17.06L69.18 17.06Q69.88 17.06 70.27 16.75Q70.65 16.43 70.65 15.86L70.65 15.86Q70.65 15.23 70.29 14.95Q69.93 14.66 69.17 14.66L69.17 14.66L67.73 14.66Z" fill="#FFFFFF"/><path class="svg__text" d="M102.55 22L98.58 22L98.58 13.60L102.55 13.60Q103.93 13.60 105.00 14.12Q106.07 14.63 106.66 15.58Q107.24 16.53 107.24 17.80L107.24 17.80Q107.24 19.07 106.66 20.02Q106.07 20.97 105.00 21.48Q103.93 22 102.55 22L102.55 22ZM100.96 15.50L100.96 20.10L102.46 20.10Q103.53 20.10 104.19 19.49Q104.84 18.88 104.84 17.80L104.84 17.80Q104.84 16.72 104.19 16.11Q103.53 15.50 102.46 15.50L102.46 15.50L100.96 15.50ZM118.72 22L111.97 22L111.97 13.60L118.56 13.60L118.56 15.44L114.33 15.44L114.33 16.85L118.06 16.85L118.06 18.63L114.33 18.63L114.33 20.17L118.72 20.17L118.72 22ZM126.11 22L122.51 13.60L125.09 13.60L127.36 19.07L129.69 13.60L132.04 13.60L128.44 22L126.11 22ZM142.94 22L136.20 22L136.20 13.60L142.79 13.60L142.79 15.44L138.55 15.44L138.55 16.85L142.28 16.85L142.28 18.63L138.55 18.63L138.55 20.17L142.94 20.17L142.94 22ZM154.13 22L147.74 22L147.74 13.60L150.12 13.60L150.12 20.11L154.13 20.11L154.13 22ZM158.12 17.80L158.12 17.80Q158.12 16.55 158.72 15.55Q159.33 14.56 160.39 14.00Q161.45 13.43 162.78 13.43L162.78 13.43Q164.11 13.43 165.18 14.00Q166.24 14.56 166.85 15.55Q167.45 16.55 167.45 17.80L167.45 17.80Q167.45 19.05 166.85 20.04Q166.24 21.04 165.18 21.60Q164.12 22.17 162.78 22.17L162.78 22.17Q161.45 22.17 160.39 21.60Q159.33 21.04 158.72 20.04Q158.12 19.05 158.12 17.80ZM160.52 17.80L160.52 17.80Q160.52 18.51 160.82 19.05Q161.12 19.60 161.64 19.90Q162.15 20.20 162.78 20.20L162.78 20.20Q163.42 20.20 163.94 19.90Q164.45 19.60 164.75 19.05Q165.05 18.51 165.05 17.80L165.05 17.80Q165.05 17.09 164.75 16.54Q164.45 16 163.94 15.70Q163.42 15.40 162.78 15.40L162.78 15.40Q162.15 15.40 161.63 15.70Q161.12 16 160.82 16.54Q160.52 17.09 160.52 17.80ZM174.56 22L172.18 22L172.18 13.60L176.03 13.60Q177.16 13.60 178.00 13.98Q178.85 14.35 179.30 15.06Q179.76 15.76 179.76 16.71L179.76 16.71Q179.76 17.66 179.30 18.35Q178.85 19.05 178.00 19.42Q177.16 19.80 176.03 19.80L176.03 19.80L174.56 19.80L174.56 22ZM174.56 15.47L174.56 17.93L175.88 17.93Q176.61 17.93 176.99 17.61Q177.36 17.29 177.36 16.71L177.36 16.71Q177.36 16.12 176.99 15.80Q176.61 15.47 175.88 15.47L175.88 15.47L174.56 15.47ZM191.26 22L184.51 22L184.51 13.60L191.10 13.60L191.10 15.44L186.87 15.44L186.87 16.85L190.60 16.85L190.60 18.63L186.87 18.63L186.87 20.17L191.26 20.17L191.26 22ZM198.44 22L196.06 22L196.06 13.60L199.90 13.60Q201.05 13.60 201.88 13.98Q202.72 14.35 203.18 15.06Q203.64 15.76 203.64 16.71L203.64 16.71Q203.64 17.62 203.21 18.30Q202.78 18.98 201.99 19.36L201.99 19.36L203.80 22L201.26 22L199.73 19.77L198.44 19.77L198.44 22ZM198.44 15.47L198.44 17.93L199.76 17.93Q200.49 17.93 200.86 17.61Q201.23 17.29 201.23 16.71L201.23 16.71Q201.23 16.12 200.86 15.79Q200.49 15.47 199.76 15.47L199.76 15.47L198.44 15.47Z" fill="#FFFFFF" x="97.39"/></svg>