<svg xmlns="http://www.w3.org/2000/svg" width="189.88" height="35" viewBox="0 0 189.88 35"><rect class="svg__rect" x="0" y="0" width="86.39" height="35" fill="#31C4F3"/><rect class="svg__rect" x="84.39" y="0" width="105.49" height="35" fill="#389AD5"/><path class="svg__text" d="M13.95 18.19L13.95 18.19L13.95 17.39Q13.95 16.19 14.38 15.27Q14.80 14.35 15.60 13.85Q16.40 13.35 17.45 13.35L17.45 13.35Q18.86 13.35 19.73 14.12Q20.59 14.89 20.73 16.29L20.73 16.29L19.25 16.29Q19.14 15.37 18.71 14.96Q18.28 14.55 17.45 14.55L17.45 14.55Q16.48 14.55 15.97 15.26Q15.45 15.96 15.44 17.33L15.44 17.33L15.44 18.09Q15.44 19.47 15.93 20.20Q16.43 20.92 17.38 20.92L17.38 20.92Q18.25 20.92 18.69 20.53Q19.13 20.14 19.25 19.22L19.25 19.22L20.73 19.22Q20.60 20.59 19.72 21.35Q18.84 22.12 17.38 22.12L17.38 22.12Q16.36 22.12 15.59 21.63Q14.81 21.15 14.39 20.26Q13.97 19.37 13.95 18.19ZM24.77 18.00L24.77 18.00L24.77 17.52Q24.77 16.28 25.21 15.32Q25.65 14.37 26.46 13.86Q27.27 13.35 28.31 13.35Q29.35 13.35 30.16 13.85Q30.96 14.35 31.40 15.29Q31.84 16.23 31.85 17.48L31.85 17.48L31.85 17.96Q31.85 19.21 31.41 20.16Q30.98 21.10 30.18 21.61Q29.37 22.12 28.32 22.12L28.32 22.12Q27.28 22.12 26.47 21.61Q25.66 21.10 25.22 20.17Q24.78 19.23 24.77 18.00ZM26.25 17.46L26.25 17.96Q26.25 19.36 26.80 20.13Q27.35 20.90 28.32 20.90L28.32 20.90Q29.31 20.90 29.84 20.15Q30.37 19.40 30.37 17.96L30.37 17.96L30.37 17.51Q30.37 16.09 29.83 15.34Q29.29 14.58 28.31 14.58L28.31 14.58Q27.35 14.58 26.81 15.33Q26.26 16.09 26.25 17.46L26.25 17.46ZM41.67 22L36.31 22L36.31 13.47L37.80 13.47L37.80 20.82L41.67 20.82L41.67 22ZM51.15 22L45.79 22L45.79 13.47L47.28 13.47L47.28 20.82L51.15 20.82L51.15 22ZM56.05 22L54.51 22L57.73 13.47L59.06 13.47L62.29 22L60.75 22L60.05 20.01L56.74 20.01L56.05 22ZM58.40 15.28L57.16 18.82L59.63 18.82L58.40 15.28ZM69.36 22L66.25 22L66.25 13.47L69.17 13.47Q70.62 13.47 71.38 14.05Q72.13 14.63 72.13 15.78L72.13 15.78Q72.13 16.36 71.81 16.83Q71.50 17.30 70.89 17.56L70.89 17.56Q71.58 17.75 71.96 18.26Q72.34 18.78 72.34 19.51L72.34 19.51Q72.34 20.71 71.57 21.36Q70.80 22 69.36 22L69.36 22ZM67.73 18.15L67.73 20.82L69.38 20.82Q70.07 20.82 70.47 20.47Q70.86 20.13 70.86 19.51L70.86 19.51Q70.86 18.18 69.50 18.15L69.50 18.15L67.73 18.15ZM67.73 14.66L67.73 17.06L69.18 17.06Q69.88 17.06 70.27 16.75Q70.65 16.43 70.65 15.86L70.65 15.86Q70.65 15.23 70.29 14.95Q69.93 14.66 69.17 14.66L69.17 14.66L67.73 14.66Z" fill="#FFFFFF"/><path class="svg__text" d="M100.91 22L98.58 22L98.58 13.60L100.53 13.60L104.24 18.07L104.24 13.60L106.57 13.60L106.57 22L104.62 22L100.91 17.52L100.91 22ZM111.30 17.80L111.30 17.80Q111.30 16.55 111.91 15.55Q112.51 14.56 113.57 14.00Q114.64 13.43 115.97 13.43L115.97 13.43Q117.30 13.43 118.36 14.00Q119.43 14.56 120.03 15.55Q120.64 16.55 120.64 17.80L120.64 17.80Q120.64 19.05 120.03 20.04Q119.43 21.04 118.36 21.60Q117.30 22.17 115.97 22.17L115.97 22.17Q114.64 22.17 113.57 21.60Q112.51 21.04 111.91 20.04Q111.30 19.05 111.30 17.80ZM113.70 17.80L113.70 17.80Q113.70 18.51 114.00 19.05Q114.30 19.60 114.82 19.90Q115.34 20.20 115.97 20.20L115.97 20.20Q116.61 20.20 117.12 19.90Q117.64 19.60 117.94 19.05Q118.24 18.51 118.24 17.80L118.24 17.80Q118.24 17.09 117.94 16.54Q117.64 16 117.12 15.70Q116.61 15.40 115.97 15.40L115.97 15.40Q115.33 15.40 114.82 15.70Q114.30 16 114.00 16.54Q113.70 17.09 113.70 17.80ZM131.75 22L125.37 22L125.37 13.60L127.75 13.60L127.75 20.11L131.75 20.11L131.75 22ZM135.74 17.80L135.74 17.80Q135.74 16.55 136.35 15.55Q136.95 14.56 138.01 14.00Q139.08 13.43 140.41 13.43L140.41 13.43Q141.74 13.43 142.80 14.00Q143.86 14.56 144.47 15.55Q145.08 16.55 145.08 17.80L145.08 17.80Q145.08 19.05 144.47 20.04Q143.86 21.04 142.80 21.60Q141.74 22.17 140.41 22.17L140.41 22.17Q139.08 22.17 138.01 21.60Q136.95 21.04 136.35 20.04Q135.74 19.05 135.74 17.80ZM138.14 17.80L138.14 17.80Q138.14 18.51 138.44 19.05Q138.74 19.60 139.26 19.90Q139.78 20.20 140.41 20.20L140.41 20.20Q141.05 20.20 141.56 19.90Q142.08 19.60 142.38 19.05Q142.68 18.51 142.68 17.80L142.68 17.80Q142.68 17.09 142.38 16.54Q142.08 16 141.56 15.70Q141.05 15.40 140.41 15.40L140.41 15.40Q139.77 15.40 139.26 15.70Q138.74 16 138.44 16.54Q138.14 17.09 138.14 17.80ZM149.38 17.80L149.38 17.80Q149.38 16.54 149.98 15.54Q150.57 14.55 151.64 13.99Q152.71 13.43 154.05 13.43L154.05 13.43Q155.23 13.43 156.17 13.83Q157.11 14.22 157.73 14.97L157.73 14.97L156.22 16.33Q155.37 15.40 154.20 15.40L154.20 15.40Q154.18 15.40 154.18 15.40L154.18 15.40Q153.10 15.40 152.44 16.06Q151.78 16.71 151.78 17.80L151.78 17.80Q151.78 18.50 152.08 19.04Q152.38 19.59 152.92 19.89Q153.46 20.20 154.15 20.20L154.15 20.20Q154.84 20.20 155.44 19.93L155.44 19.93L155.44 17.62L157.53 17.62L157.53 21.10Q156.81 21.61 155.88 21.89Q154.95 22.17 154.01 22.17L154.01 22.17Q152.69 22.17 151.63 21.61Q150.57 21.05 149.98 20.05Q149.38 19.06 149.38 17.80ZM164.91 22L162.53 22L162.53 13.60L164.91 13.60L164.91 22ZM172.41 22L170.08 22L170.08 13.60L172.04 13.60L175.75 18.07L175.75 13.60L178.07 13.60L178.07 22L176.12 22L172.41 17.52L172.41 22Z" fill="#FFFFFF" x="97.39"/></svg>